<svg data-v-fde0c5aa="" xmlns="http://www.w3.org/2000/svg" viewBox="0 0 300 300" class="font"><!----><defs data-v-fde0c5aa=""><linearGradient data-v-fde0c5aa="" gradientTransform="rotate(25)" id="00020d8d-5f24-4041-8379-4e72d474ca6d" x1="0%" y1="0%" x2="100%" y2="0%"><stop data-v-fde0c5aa="" offset="0%" stop-color="#21690F" stop-opacity="1"></stop><stop data-v-fde0c5aa="" offset="100%" stop-color="#88C848" stop-opacity="1"></stop></linearGradient></defs><rect data-v-fde0c5aa="" fill="url(#00020d8d-5f24-4041-8379-4e72d474ca6d)" x="0" y="0" width="300px" height="300px" class="logo-background-square"></rect><defs data-v-fde0c5aa=""><!----></defs><g data-v-fde0c5aa="" id="0bd7a8ff-d625-4d3a-9842-6c934ac3d85c" fill="#ffffff" transform="matrix(3.8434659949138705,0,0,3.8434659949138705,38.155136249133044,111.46925211809327)"><path d="M1.48 3.79L0.48 3.79L0.48 4.38C0.48 4.52 0.55 4.62 0.69 4.65C0.77 4.68 1.04 4.73 1.48 4.82L1.48 12.81L0.69 12.96C0.55 12.99 0.48 13.09 0.48 13.23L0.48 13.82L3.86 13.82L3.86 13.23C3.86 13.09 3.78 12.99 3.64 12.96C3.22 12.88 2.97 12.84 2.86 12.81L2.86 9.51L6.66 9.51L6.66 8.41L2.86 8.41L2.86 4.90L6.83 4.90C6.89 5.57 6.94 5.94 6.94 5.98C6.97 6.15 7.06 6.22 7.22 6.22L7.91 6.22L7.91 3.79ZM12.04 3.68C11.62 3.68 11.20 3.74 10.84 3.86C10.47 3.99 10.14 4.17 9.86 4.41C9.58 4.65 9.34 4.94 9.14 5.29C8.95 5.64 8.82 6.06 8.76 6.51L9.41 6.62L9.51 6.62L9.58 6.62C9.69 6.62 9.79 6.59 9.87 6.54C9.95 6.48 10.01 6.38 10.04 6.24C10.09 6.02 10.18 5.82 10.29 5.64C10.40 5.46 10.54 5.31 10.71 5.17C10.88 5.03 11.06 4.94 11.28 4.86C11.51 4.77 11.73 4.75 11.98 4.75C12.24 4.75 12.46 4.79 12.68 4.86C12.91 4.93 13.08 5.03 13.24 5.17C13.41 5.31 13.55 5.47 13.64 5.70C13.72 5.92 13.76 6.17 13.76 6.45C13.76 6.71 13.72 6.94 13.64 7.17C13.55 7.39 13.41 7.56 13.22 7.71C13.02 7.87 12.80 7.99 12.49 8.08C12.18 8.16 11.82 8.23 11.40 8.23L11.40 9.14C11.93 9.14 12.35 9.20 12.68 9.28C13.02 9.37 13.27 9.48 13.47 9.65C13.66 9.81 13.79 10.01 13.86 10.23C13.93 10.46 13.97 10.70 13.97 10.98C13.97 11.20 13.92 11.41 13.83 11.63C13.75 11.86 13.61 12.07 13.44 12.25C13.27 12.43 13.03 12.59 12.77 12.70C12.50 12.81 12.19 12.87 11.84 12.87C11.49 12.87 11.21 12.81 10.98 12.70C10.74 12.59 10.54 12.47 10.37 12.33C10.21 12.19 10.08 12.03 10.00 11.86C9.91 11.69 9.83 11.54 9.77 11.40C9.77 11.37 9.74 11.35 9.74 11.33C9.74 11.30 9.72 11.30 9.72 11.27C9.69 11.19 9.63 11.12 9.56 11.07C9.49 11.03 9.41 11.02 9.32 11.02C9.23 11.02 9.11 11.03 9.02 11.07L8.48 11.30C8.60 11.66 8.75 12.03 8.92 12.35C9.09 12.67 9.31 12.95 9.56 13.17C9.81 13.40 10.15 13.59 10.53 13.73C10.91 13.87 11.35 13.93 11.89 13.93C12.35 13.93 12.78 13.86 13.19 13.72C13.59 13.58 13.94 13.37 14.25 13.12C14.56 12.87 14.78 12.54 14.95 12.18C15.12 11.82 15.22 11.40 15.22 10.93C15.22 10.32 15.06 9.81 14.73 9.41C14.39 9.00 13.89 8.71 13.24 8.54C13.51 8.46 13.75 8.36 13.97 8.22C14.20 8.08 14.38 7.94 14.53 7.74C14.69 7.55 14.80 7.34 14.88 7.08C14.97 6.83 15.01 6.54 15.01 6.23C15.01 5.84 14.92 5.50 14.78 5.19C14.64 4.89 14.43 4.61 14.18 4.38C13.93 4.16 13.62 3.96 13.26 3.85C12.89 3.74 12.50 3.68 12.08 3.68ZM24.39 12.95C24.28 12.92 23.69 12.82 23.60 12.81L21.43 9.84C21.29 9.65 21.15 9.52 20.99 9.42C21.38 9.34 21.71 9.18 22.02 9.02C22.33 8.85 22.58 8.64 22.79 8.39C23.00 8.13 23.17 7.85 23.28 7.55C23.39 7.24 23.45 6.93 23.45 6.57C23.45 6.15 23.38 5.74 23.24 5.40C23.10 5.07 22.88 4.77 22.57 4.52C22.26 4.27 21.88 4.09 21.42 3.96C20.96 3.84 20.41 3.77 19.77 3.77L17.07 3.77L16.06 3.77L16.06 4.38C16.06 4.51 16.14 4.61 16.27 4.63C16.39 4.66 17.08 4.80 17.08 4.80L17.08 12.78C17.08 12.78 16.39 12.92 16.27 12.95C16.14 12.98 16.06 13.08 16.06 13.20L16.06 13.80L17.07 13.80L18.42 13.80L18.42 13.80L19.43 13.80L19.43 13.20C19.43 13.08 19.33 12.98 19.21 12.95C19.10 12.92 18.42 12.78 18.42 12.78L18.42 9.62L19.32 9.62C19.52 9.62 19.66 9.65 19.74 9.70C19.82 9.76 19.91 9.83 19.99 9.94L22.60 13.52C22.71 13.72 22.88 13.82 23.13 13.82L23.58 13.82L24.33 13.82L24.58 13.82L24.58 13.20C24.58 13.08 24.50 12.98 24.37 12.95ZM19.70 8.64L18.41 8.64L18.41 4.86L19.77 4.86C20.55 4.86 21.13 5.00 21.52 5.31C21.91 5.61 22.11 6.06 22.11 6.65C22.11 6.94 22.06 7.21 21.95 7.46C21.84 7.71 21.69 7.91 21.49 8.08C21.29 8.25 21.04 8.40 20.73 8.50C20.43 8.60 20.08 8.64 19.68 8.64ZM31.21 6.61C30.81 6.61 30.46 6.65 30.13 6.76C29.79 6.87 29.50 7.03 29.26 7.22C29.02 7.42 28.84 7.66 28.70 7.94C28.56 8.22 28.50 8.54 28.50 8.88C28.50 9.31 28.60 9.69 28.80 10.01C28.99 10.33 29.27 10.60 29.62 10.79C29.48 10.88 29.34 10.95 29.23 11.05C29.12 11.14 29.02 11.24 28.94 11.35C28.85 11.47 28.80 11.58 28.77 11.69C28.74 11.80 28.71 11.89 28.71 12.00C28.71 12.25 28.78 12.47 28.90 12.63C29.01 12.78 29.18 12.92 29.37 13.01C28.98 13.15 28.67 13.34 28.45 13.59C28.22 13.85 28.11 14.14 28.11 14.49C28.11 14.74 28.18 14.97 28.31 15.19C28.43 15.41 28.63 15.62 28.88 15.79C29.13 15.96 29.46 16.10 29.85 16.21C30.24 16.32 30.70 16.37 31.22 16.37C31.74 16.37 32.20 16.31 32.62 16.17C33.04 16.03 33.38 15.86 33.66 15.64C33.94 15.41 34.17 15.16 34.33 14.88C34.48 14.60 34.55 14.29 34.55 13.99C34.55 13.65 34.50 13.40 34.36 13.20C34.22 13.01 34.03 12.82 33.81 12.71C33.59 12.60 33.32 12.52 33.04 12.46C32.76 12.40 32.47 12.39 32.17 12.36C31.88 12.33 31.58 12.31 31.30 12.31C31.02 12.31 30.76 12.28 30.53 12.25C30.31 12.22 30.13 12.15 29.99 12.07C29.85 11.98 29.79 11.86 29.79 11.69C29.79 11.58 29.82 11.49 29.90 11.38C29.99 11.27 30.10 11.16 30.24 11.07C30.53 11.16 30.84 11.20 31.18 11.20C31.57 11.20 31.92 11.16 32.24 11.05C32.56 10.93 32.84 10.77 33.08 10.57C33.32 10.37 33.49 10.14 33.63 9.86C33.77 9.58 33.82 9.25 33.82 8.92C33.82 8.55 33.77 8.22 33.60 7.91L34.40 7.80C34.59 7.76 34.69 7.66 34.69 7.50L34.69 7.04L32.76 7.04C32.54 6.90 32.30 6.80 32.03 6.73C31.77 6.66 31.49 6.64 31.18 6.64ZM33.39 14.24C33.39 14.43 33.33 14.59 33.24 14.74C33.14 14.90 33.00 15.02 32.82 15.13C32.63 15.25 32.41 15.34 32.14 15.40C31.88 15.46 31.58 15.50 31.25 15.50C30.91 15.50 30.60 15.47 30.35 15.41C30.10 15.36 29.89 15.27 29.72 15.18C29.55 15.08 29.43 14.97 29.34 14.83C29.26 14.69 29.22 14.55 29.22 14.38C29.22 14.13 29.30 13.90 29.47 13.72C29.64 13.54 29.86 13.38 30.13 13.26C30.35 13.29 30.59 13.33 30.84 13.34C31.09 13.36 31.33 13.36 31.58 13.37C31.84 13.38 32.06 13.41 32.28 13.44C32.51 13.47 32.69 13.51 32.86 13.57C33.03 13.62 33.17 13.71 33.26 13.82C33.36 13.93 33.40 14.07 33.40 14.24ZM31.19 10.37C30.94 10.37 30.74 10.35 30.55 10.28C30.35 10.21 30.20 10.11 30.06 9.98C29.92 9.86 29.83 9.70 29.76 9.53C29.69 9.37 29.65 9.17 29.65 8.96C29.65 8.53 29.78 8.18 30.04 7.92C30.31 7.67 30.69 7.55 31.19 7.55C31.70 7.55 32.07 7.67 32.34 7.92C32.61 8.18 32.75 8.53 32.75 8.96C32.75 9.17 32.70 9.37 32.65 9.53C32.59 9.70 32.49 9.87 32.35 10.00C32.21 10.12 32.06 10.22 31.86 10.29C31.67 10.36 31.44 10.40 31.19 10.40ZM41.68 12.95C41.59 12.92 41.17 12.84 40.98 12.80L40.98 9.25C40.98 8.86 40.94 8.50 40.82 8.16C40.71 7.83 40.56 7.55 40.35 7.32C40.14 7.10 39.89 6.93 39.58 6.79C39.27 6.65 38.91 6.59 38.51 6.59C37.95 6.59 37.45 6.68 37.00 6.87C36.55 7.07 36.13 7.34 35.74 7.71L35.97 8.11C35.99 8.16 36.05 8.23 36.11 8.27C36.16 8.32 36.25 8.33 36.33 8.33C36.44 8.33 36.54 8.30 36.65 8.22C36.76 8.13 36.90 8.06 37.06 7.97C37.21 7.87 37.38 7.80 37.59 7.71C37.80 7.63 38.05 7.59 38.36 7.59C38.82 7.59 39.17 7.74 39.41 8.02C39.65 8.30 39.77 8.72 39.77 9.28L39.77 9.83C38.96 9.83 38.29 9.88 37.73 10.01C37.17 10.14 36.72 10.32 36.39 10.51C36.05 10.71 35.78 10.96 35.63 11.21C35.48 11.47 35.41 11.75 35.41 12.03C35.41 12.35 35.45 12.63 35.56 12.87C35.67 13.10 35.81 13.30 35.98 13.45C36.15 13.61 36.37 13.71 36.61 13.79C36.85 13.87 37.09 13.92 37.37 13.92C37.65 13.92 37.90 13.90 38.12 13.85C38.35 13.79 38.54 13.72 38.74 13.64C38.93 13.55 39.13 13.44 39.30 13.30C39.47 13.16 39.66 13.01 39.86 12.84L40.00 13.51C40.03 13.62 40.05 13.71 40.14 13.73C40.22 13.76 40.32 13.79 40.43 13.79L40.88 13.79L40.98 13.79L41.89 13.79L41.89 13.19C41.89 13.06 41.80 12.95 41.68 12.92ZM39.75 12.08C39.61 12.22 39.47 12.36 39.33 12.47C39.19 12.59 39.03 12.70 38.86 12.78C38.70 12.87 38.53 12.92 38.35 12.96C38.16 13.01 37.98 13.03 37.76 13.03C37.59 13.03 37.44 13.01 37.30 12.96C37.16 12.92 37.04 12.87 36.93 12.78C36.82 12.70 36.74 12.59 36.68 12.45C36.62 12.31 36.58 12.17 36.58 11.97C36.58 11.77 36.64 11.61 36.75 11.44C36.86 11.27 37.06 11.13 37.31 11.02C37.56 10.91 37.90 10.79 38.29 10.72C38.68 10.65 39.17 10.63 39.75 10.63ZM44.91 7.76L44.80 6.99C44.74 6.82 44.63 6.73 44.46 6.73L43.74 6.73L42.73 6.73L42.73 7.32C42.73 7.46 42.78 7.56 42.92 7.59C43.01 7.62 43.29 7.67 43.74 7.76L43.74 12.81L42.92 12.96C42.78 12.99 42.73 13.09 42.73 13.23L42.73 13.82L45.99 13.82L45.99 13.23C45.99 13.09 45.92 12.99 45.78 12.96C45.28 12.85 45.00 12.80 44.97 12.80L44.97 8.60C45.56 7.94 46.20 7.60 46.90 7.60C47.89 7.60 48.38 8.19 48.38 9.31L48.38 13.82L50.65 13.82L50.65 13.22C50.65 13.08 50.57 12.98 50.43 12.95C50.34 12.92 50.08 12.87 49.63 12.78L49.63 9.30C49.63 8.48 49.42 7.83 49.03 7.35C48.61 6.85 48.02 6.61 47.26 6.61C46.40 6.61 45.61 6.99 44.91 7.74ZM54.24 6.61C53.84 6.61 53.49 6.65 53.16 6.76C52.82 6.87 52.53 7.03 52.29 7.22C52.05 7.42 51.87 7.66 51.73 7.94C51.59 8.22 51.53 8.54 51.53 8.88C51.53 9.31 51.63 9.69 51.83 10.01C52.02 10.33 52.30 10.60 52.65 10.79C52.51 10.88 52.37 10.95 52.26 11.05C52.15 11.14 52.05 11.24 51.97 11.35C51.88 11.47 51.83 11.58 51.80 11.69C51.77 11.80 51.74 11.89 51.74 12.00C51.74 12.25 51.81 12.47 51.93 12.63C52.04 12.78 52.21 12.92 52.40 13.01C52.01 13.15 51.70 13.34 51.48 13.59C51.25 13.85 51.14 14.14 51.14 14.49C51.14 14.74 51.21 14.97 51.34 15.19C51.46 15.41 51.66 15.62 51.91 15.79C52.16 15.96 52.49 16.10 52.88 16.21C53.27 16.32 53.73 16.37 54.25 16.37C54.77 16.37 55.23 16.31 55.65 16.17C56.07 16.03 56.41 15.86 56.69 15.64C56.97 15.41 57.20 15.16 57.36 14.88C57.51 14.60 57.58 14.29 57.58 13.99C57.58 13.65 57.53 13.40 57.39 13.20C57.25 13.01 57.06 12.82 56.84 12.71C56.62 12.60 56.35 12.52 56.07 12.46C55.79 12.40 55.50 12.39 55.20 12.36C54.91 12.33 54.61 12.31 54.33 12.31C54.05 12.31 53.79 12.28 53.56 12.25C53.34 12.22 53.16 12.15 53.02 12.07C52.88 11.98 52.82 11.86 52.82 11.69C52.82 11.58 52.85 11.49 52.93 11.38C53.02 11.27 53.13 11.16 53.27 11.07C53.56 11.16 53.87 11.20 54.21 11.20C54.60 11.20 54.95 11.16 55.27 11.05C55.59 10.93 55.87 10.77 56.11 10.57C56.35 10.37 56.52 10.14 56.66 9.86C56.80 9.58 56.85 9.25 56.85 8.92C56.85 8.55 56.80 8.22 56.63 7.91L57.43 7.80C57.62 7.76 57.72 7.66 57.72 7.50L57.72 7.04L55.79 7.04C55.57 6.90 55.33 6.80 55.06 6.73C54.80 6.66 54.52 6.64 54.21 6.64ZM56.42 14.24C56.42 14.43 56.36 14.59 56.27 14.74C56.17 14.90 56.03 15.02 55.85 15.13C55.66 15.25 55.44 15.34 55.17 15.40C54.91 15.46 54.61 15.50 54.28 15.50C53.94 15.50 53.63 15.47 53.38 15.41C53.13 15.36 52.92 15.27 52.75 15.18C52.58 15.08 52.46 14.97 52.37 14.83C52.29 14.69 52.25 14.55 52.25 14.38C52.25 14.13 52.33 13.90 52.50 13.72C52.67 13.54 52.89 13.38 53.16 13.26C53.38 13.29 53.62 13.33 53.87 13.34C54.12 13.36 54.36 13.36 54.61 13.37C54.87 13.38 55.09 13.41 55.31 13.44C55.54 13.47 55.72 13.51 55.89 13.57C56.06 13.62 56.20 13.71 56.29 13.82C56.39 13.93 56.43 14.07 56.43 14.24ZM54.22 10.37C53.97 10.37 53.77 10.35 53.58 10.28C53.38 10.21 53.23 10.11 53.09 9.98C52.95 9.86 52.86 9.70 52.79 9.53C52.72 9.37 52.68 9.17 52.68 8.96C52.68 8.53 52.81 8.18 53.07 7.92C53.34 7.67 53.72 7.55 54.22 7.55C54.73 7.55 55.10 7.67 55.37 7.92C55.64 8.18 55.78 8.53 55.78 8.96C55.78 9.17 55.73 9.37 55.68 9.53C55.62 9.70 55.52 9.87 55.38 10.00C55.24 10.12 55.09 10.22 54.89 10.29C54.70 10.36 54.47 10.40 54.22 10.40Z"></path></g><!----><!----></svg>